<mxfile host="app.diagrams.net" modified="2021-06-04T12:03:31.135Z" agent="5.0 (Windows NT 10.0; Win64; x64) AppleWebKit/537.36 (KHTML, like Gecko) Chrome/90.0.4430.212 Safari/537.36" etag="_KyRFIAuTBRK1ilzRmv5" version="14.7.4" type="github">
  <diagram id="SkIhgehRgUOG8sE2-ucU" name="Page-1">
    <mxGraphModel dx="782" dy="1537" grid="1" gridSize="10" guides="1" tooltips="1" connect="1" arrows="1" fold="1" page="1" pageScale="1" pageWidth="850" pageHeight="1100" math="0" shadow="0">
      <root>
        <mxCell id="0" />
        <mxCell id="1" parent="0" />
        <mxCell id="a931OXOb7cvNoLb_iAoM-1" value="" style="swimlane;startSize=0;dashed=1;" parent="1" vertex="1">
          <mxGeometry x="90" y="-220" width="1100" height="650" as="geometry" />
        </mxCell>
        <mxCell id="a931OXOb7cvNoLb_iAoM-2" value="&lt;font style=&quot;font-size: 14px&quot;&gt;Api Gateway&lt;/font&gt;&lt;br&gt;[Component: Zuul Proxy]&lt;br&gt;&lt;br&gt;Auth, Routing" style="rounded=0;whiteSpace=wrap;html=1;fillColor=#1ba1e2;strokeColor=#006EAF;fontColor=#ffffff;" parent="a931OXOb7cvNoLb_iAoM-1" vertex="1">
          <mxGeometry x="80" y="425" width="120" height="75" as="geometry" />
        </mxCell>
        <mxCell id="a931OXOb7cvNoLb_iAoM-36" style="edgeStyle=orthogonalEdgeStyle;rounded=0;orthogonalLoop=1;jettySize=auto;html=1;dashed=1;" parent="a931OXOb7cvNoLb_iAoM-1" source="a931OXOb7cvNoLb_iAoM-6" target="a931OXOb7cvNoLb_iAoM-35" edge="1">
          <mxGeometry relative="1" as="geometry" />
        </mxCell>
        <mxCell id="a931OXOb7cvNoLb_iAoM-6" value="&lt;font&gt;&lt;font style=&quot;font-size: 14px&quot;&gt;Admin Service&lt;/font&gt;&lt;br&gt;&lt;/font&gt;&lt;font style=&quot;font-size: 10px&quot;&gt;[Component: Spring MVC Admin Controller, Menu Controller, Maps Controller]&lt;br&gt;&lt;/font&gt;&lt;font style=&quot;font-size: 12px&quot;&gt;&lt;br&gt;Adds or removes shops, adds or removes menu items, gets coffee shops, gets menu items,&lt;br&gt;gets nearby coffee shops&lt;br&gt;&lt;/font&gt;" style="rounded=0;whiteSpace=wrap;html=1;fillColor=#1ba1e2;strokeColor=#006EAF;fontColor=#ffffff;" parent="a931OXOb7cvNoLb_iAoM-1" vertex="1">
          <mxGeometry x="140" y="60" width="140" height="140" as="geometry" />
        </mxCell>
        <mxCell id="a931OXOb7cvNoLb_iAoM-34" style="edgeStyle=orthogonalEdgeStyle;rounded=0;orthogonalLoop=1;jettySize=auto;html=1;entryX=0;entryY=0.5;entryDx=0;entryDy=0;entryPerimeter=0;dashed=1;" parent="a931OXOb7cvNoLb_iAoM-1" source="a931OXOb7cvNoLb_iAoM-7" target="a931OXOb7cvNoLb_iAoM-33" edge="1">
          <mxGeometry relative="1" as="geometry" />
        </mxCell>
        <mxCell id="LLMWrkkM6dnET8qG6Xcl-11" style="edgeStyle=orthogonalEdgeStyle;rounded=0;orthogonalLoop=1;jettySize=auto;html=1;entryX=0.225;entryY=-0.133;entryDx=0;entryDy=0;entryPerimeter=0;" edge="1" parent="a931OXOb7cvNoLb_iAoM-1" source="a931OXOb7cvNoLb_iAoM-7" target="a931OXOb7cvNoLb_iAoM-19">
          <mxGeometry relative="1" as="geometry">
            <Array as="points">
              <mxPoint x="509" y="212" />
              <mxPoint x="509" y="212" />
            </Array>
          </mxGeometry>
        </mxCell>
        <mxCell id="LLMWrkkM6dnET8qG6Xcl-19" style="edgeStyle=orthogonalEdgeStyle;rounded=0;orthogonalLoop=1;jettySize=auto;html=1;" edge="1" parent="a931OXOb7cvNoLb_iAoM-1" source="a931OXOb7cvNoLb_iAoM-7">
          <mxGeometry relative="1" as="geometry">
            <mxPoint x="459" y="281" as="targetPoint" />
            <Array as="points">
              <mxPoint x="460" y="272" />
              <mxPoint x="459" y="272" />
            </Array>
          </mxGeometry>
        </mxCell>
        <mxCell id="a931OXOb7cvNoLb_iAoM-7" value="&lt;font&gt;&lt;font style=&quot;font-size: 14px&quot;&gt;Order Service&lt;/font&gt;&lt;br&gt;&lt;/font&gt;&lt;font style=&quot;font-size: 10px&quot;&gt;[Component: Spring MVC, Order Controller, &lt;br&gt;Cart Controller, Payment Controller]&lt;br&gt;&lt;/font&gt;&lt;font style=&quot;font-size: 12px&quot;&gt;&lt;br&gt;Adds or removes cart items, places order, confirms order, gets order history, gets current order status, updates order status, computes payment&lt;/font&gt;" style="rounded=0;whiteSpace=wrap;html=1;fillColor=#1ba1e2;strokeColor=#006EAF;fontColor=#ffffff;" parent="a931OXOb7cvNoLb_iAoM-1" vertex="1">
          <mxGeometry x="380" y="60" width="200" height="130" as="geometry" />
        </mxCell>
        <mxCell id="a931OXOb7cvNoLb_iAoM-16" style="edgeStyle=orthogonalEdgeStyle;rounded=0;orthogonalLoop=1;jettySize=auto;html=1;entryX=0;entryY=0.5;entryDx=0;entryDy=0;dashed=1;" parent="a931OXOb7cvNoLb_iAoM-1" source="a931OXOb7cvNoLb_iAoM-10" target="a931OXOb7cvNoLb_iAoM-12" edge="1">
          <mxGeometry relative="1" as="geometry" />
        </mxCell>
        <mxCell id="a931OXOb7cvNoLb_iAoM-10" value="&lt;font&gt;&lt;font style=&quot;font-size: 14px&quot;&gt;Recommendation Service&lt;/font&gt;&lt;br&gt;&lt;/font&gt;&lt;font style=&quot;font-size: 10px&quot;&gt;[Component: Spring MVC Recommendation Controller]&lt;br&gt;&lt;/font&gt;&lt;font style=&quot;font-size: 12px&quot;&gt;&lt;br&gt;Recommends items based on previous orders and orders from customers with similar attributes&lt;/font&gt;" style="rounded=0;whiteSpace=wrap;html=1;fillColor=#1ba1e2;strokeColor=#006EAF;fontColor=#ffffff;" parent="a931OXOb7cvNoLb_iAoM-1" vertex="1">
          <mxGeometry x="630" y="350" width="140" height="150" as="geometry" />
        </mxCell>
        <mxCell id="a931OXOb7cvNoLb_iAoM-12" value="&lt;font&gt;&lt;font style=&quot;font-size: 14px&quot;&gt;Recommendation Engine&lt;/font&gt;&lt;br&gt;&lt;/font&gt;&lt;font style=&quot;font-size: 10px&quot;&gt;[Component: Python, TensorFlow Recommenders(TFRS), Keras]&lt;br&gt;&lt;/font&gt;&lt;font style=&quot;font-size: 12px&quot;&gt;&lt;br&gt;&lt;br&gt;Creates a recommendation model based on customer attributes and orders. This is an offline batch job. Uses copies of order DB, Customer DB, CoffeeShop DB, Maps DB&lt;/font&gt;" style="rounded=0;whiteSpace=wrap;html=1;fillColor=#1ba1e2;strokeColor=#006EAF;fontColor=#ffffff;" parent="a931OXOb7cvNoLb_iAoM-1" vertex="1">
          <mxGeometry x="850" y="350" width="200" height="150" as="geometry" />
        </mxCell>
        <mxCell id="a931OXOb7cvNoLb_iAoM-32" style="edgeStyle=orthogonalEdgeStyle;rounded=0;orthogonalLoop=1;jettySize=auto;html=1;entryX=0;entryY=0.5;entryDx=0;entryDy=0;entryPerimeter=0;dashed=1;" parent="a931OXOb7cvNoLb_iAoM-1" source="a931OXOb7cvNoLb_iAoM-13" target="a931OXOb7cvNoLb_iAoM-31" edge="1">
          <mxGeometry relative="1" as="geometry" />
        </mxCell>
        <mxCell id="a931OXOb7cvNoLb_iAoM-13" value="&lt;font&gt;&lt;font style=&quot;font-size: 14px&quot;&gt;Customer Service&lt;/font&gt;&lt;br&gt;&lt;/font&gt;&lt;font style=&quot;font-size: 10px&quot;&gt;[Component: Spring MVC,&lt;br&gt;&amp;nbsp;Customer Controller]&lt;br&gt;&lt;/font&gt;&lt;font style=&quot;font-size: 12px&quot;&gt;&lt;br&gt;Gets customer details, registration&lt;br&gt;&lt;br&gt;&lt;br&gt;&lt;/font&gt;" style="rounded=0;whiteSpace=wrap;html=1;fillColor=#1ba1e2;strokeColor=#006EAF;fontColor=#ffffff;" parent="a931OXOb7cvNoLb_iAoM-1" vertex="1">
          <mxGeometry x="740" y="70" width="150" height="120" as="geometry" />
        </mxCell>
        <mxCell id="a931OXOb7cvNoLb_iAoM-17" value="Uses model generated by" style="text;html=1;strokeColor=none;fillColor=none;align=center;verticalAlign=middle;whiteSpace=wrap;rounded=0;" parent="a931OXOb7cvNoLb_iAoM-1" vertex="1">
          <mxGeometry x="790" y="380" width="40" height="20" as="geometry" />
        </mxCell>
        <mxCell id="LLMWrkkM6dnET8qG6Xcl-5" style="edgeStyle=orthogonalEdgeStyle;rounded=0;orthogonalLoop=1;jettySize=auto;html=1;exitX=0.33;exitY=-0.067;exitDx=0;exitDy=0;exitPerimeter=0;" edge="1" parent="a931OXOb7cvNoLb_iAoM-1" source="a931OXOb7cvNoLb_iAoM-19">
          <mxGeometry relative="1" as="geometry">
            <mxPoint x="565" y="192" as="targetPoint" />
            <Array as="points">
              <mxPoint x="565" y="242" />
              <mxPoint x="565" y="242" />
            </Array>
          </mxGeometry>
        </mxCell>
        <mxCell id="LLMWrkkM6dnET8qG6Xcl-13" style="edgeStyle=orthogonalEdgeStyle;rounded=0;orthogonalLoop=1;jettySize=auto;html=1;" edge="1" parent="a931OXOb7cvNoLb_iAoM-1" source="a931OXOb7cvNoLb_iAoM-19" target="a931OXOb7cvNoLb_iAoM-7">
          <mxGeometry relative="1" as="geometry">
            <Array as="points">
              <mxPoint x="490" y="242" />
              <mxPoint x="490" y="242" />
            </Array>
          </mxGeometry>
        </mxCell>
        <mxCell id="LLMWrkkM6dnET8qG6Xcl-21" style="edgeStyle=orthogonalEdgeStyle;rounded=0;orthogonalLoop=1;jettySize=auto;html=1;entryX=0.127;entryY=0.995;entryDx=0;entryDy=0;entryPerimeter=0;" edge="1" parent="a931OXOb7cvNoLb_iAoM-1" source="a931OXOb7cvNoLb_iAoM-19" target="a931OXOb7cvNoLb_iAoM-7">
          <mxGeometry relative="1" as="geometry">
            <Array as="points">
              <mxPoint x="405" y="272" />
              <mxPoint x="405" y="272" />
            </Array>
          </mxGeometry>
        </mxCell>
        <mxCell id="a931OXOb7cvNoLb_iAoM-19" value="Messaging&lt;br&gt;&lt;font style=&quot;font-size: 10px&quot;&gt;[Component: Kafka]&lt;/font&gt;" style="rounded=0;whiteSpace=wrap;html=1;fillColor=#0050ef;strokeColor=#001DBC;fontColor=#ffffff;" parent="a931OXOb7cvNoLb_iAoM-1" vertex="1">
          <mxGeometry x="390" y="282" width="530" height="30" as="geometry" />
        </mxCell>
        <mxCell id="a931OXOb7cvNoLb_iAoM-31" value="Customer DB" style="shape=cylinder3;whiteSpace=wrap;html=1;boundedLbl=1;backgroundOutline=1;size=15;fillColor=#1ba1e2;strokeColor=#006EAF;fontColor=#ffffff;" parent="a931OXOb7cvNoLb_iAoM-1" vertex="1">
          <mxGeometry x="930" y="90" width="60" height="80" as="geometry" />
        </mxCell>
        <mxCell id="a931OXOb7cvNoLb_iAoM-33" value="Order DB" style="shape=cylinder3;whiteSpace=wrap;html=1;boundedLbl=1;backgroundOutline=1;size=15;fillColor=#1ba1e2;strokeColor=#006EAF;fontColor=#ffffff;" parent="a931OXOb7cvNoLb_iAoM-1" vertex="1">
          <mxGeometry x="610" y="85" width="60" height="80" as="geometry" />
        </mxCell>
        <mxCell id="a931OXOb7cvNoLb_iAoM-35" value="Admin DB" style="shape=cylinder3;whiteSpace=wrap;html=1;boundedLbl=1;backgroundOutline=1;size=15;fillColor=#1ba1e2;strokeColor=#006EAF;fontColor=#ffffff;" parent="a931OXOb7cvNoLb_iAoM-1" vertex="1">
          <mxGeometry x="300" y="85" width="60" height="80" as="geometry" />
        </mxCell>
        <mxCell id="a931OXOb7cvNoLb_iAoM-3" value="API Application&lt;br&gt;&lt;font style=&quot;font-size: 10px&quot;&gt;[Container]&lt;/font&gt;" style="text;html=1;strokeColor=none;fillColor=none;align=center;verticalAlign=middle;whiteSpace=wrap;rounded=0;" parent="a931OXOb7cvNoLb_iAoM-1" vertex="1">
          <mxGeometry y="632" width="110" height="2" as="geometry" />
        </mxCell>
        <mxCell id="LLMWrkkM6dnET8qG6Xcl-4" value="publish add customer" style="text;html=1;strokeColor=none;fillColor=none;align=center;verticalAlign=middle;whiteSpace=wrap;rounded=0;rotation=-90;" vertex="1" parent="a931OXOb7cvNoLb_iAoM-1">
          <mxGeometry x="780" y="217" width="70" height="30" as="geometry" />
        </mxCell>
        <mxCell id="LLMWrkkM6dnET8qG6Xcl-6" value="customer added" style="text;html=1;strokeColor=none;fillColor=none;align=center;verticalAlign=middle;whiteSpace=wrap;rounded=0;rotation=-90;" vertex="1" parent="a931OXOb7cvNoLb_iAoM-1">
          <mxGeometry x="530" y="222" width="70" height="20" as="geometry" />
        </mxCell>
        <mxCell id="LLMWrkkM6dnET8qG6Xcl-3" style="edgeStyle=orthogonalEdgeStyle;rounded=0;orthogonalLoop=1;jettySize=auto;html=1;" edge="1" parent="a931OXOb7cvNoLb_iAoM-1" source="a931OXOb7cvNoLb_iAoM-13">
          <mxGeometry relative="1" as="geometry">
            <mxPoint x="815" y="279" as="targetPoint" />
            <Array as="points">
              <mxPoint x="815" y="279" />
            </Array>
          </mxGeometry>
        </mxCell>
        <mxCell id="LLMWrkkM6dnET8qG6Xcl-9" value="publish order placed" style="text;html=1;strokeColor=none;fillColor=none;align=center;verticalAlign=middle;whiteSpace=wrap;rounded=0;rotation=-90;" vertex="1" parent="a931OXOb7cvNoLb_iAoM-1">
          <mxGeometry x="480" y="232" width="70" height="20" as="geometry" />
        </mxCell>
        <mxCell id="LLMWrkkM6dnET8qG6Xcl-14" value="order &lt;br&gt;placed" style="text;html=1;strokeColor=none;fillColor=none;align=center;verticalAlign=middle;whiteSpace=wrap;rounded=0;rotation=-90;" vertex="1" parent="a931OXOb7cvNoLb_iAoM-1">
          <mxGeometry x="490" y="232" height="20" as="geometry" />
        </mxCell>
        <mxCell id="LLMWrkkM6dnET8qG6Xcl-20" value="publish order ready" style="text;html=1;strokeColor=none;fillColor=none;align=center;verticalAlign=middle;whiteSpace=wrap;rounded=0;rotation=-90;" vertex="1" parent="a931OXOb7cvNoLb_iAoM-1">
          <mxGeometry x="430" y="232" width="40" height="20" as="geometry" />
        </mxCell>
        <mxCell id="LLMWrkkM6dnET8qG6Xcl-24" value="&lt;font style=&quot;font-size: 14px&quot;&gt;Discovery Server&lt;/font&gt;&lt;br&gt;[Component: Eureka]&lt;br&gt;&lt;br&gt;Service discovery" style="rounded=0;whiteSpace=wrap;html=1;fillColor=#1ba1e2;strokeColor=#006EAF;fontColor=#ffffff;" vertex="1" parent="a931OXOb7cvNoLb_iAoM-1">
          <mxGeometry x="80" y="340" width="120" height="75" as="geometry" />
        </mxCell>
        <mxCell id="LLMWrkkM6dnET8qG6Xcl-22" value="order ready" style="text;html=1;strokeColor=none;fillColor=none;align=center;verticalAlign=middle;whiteSpace=wrap;rounded=0;rotation=-91;" vertex="1" parent="1">
          <mxGeometry x="480" y="30" width="55" height="20" as="geometry" />
        </mxCell>
        <mxCell id="LLMWrkkM6dnET8qG6Xcl-23" value="" style="swimlane;startSize=0;" vertex="1" parent="1">
          <mxGeometry x="120" y="105" width="200" height="200" as="geometry" />
        </mxCell>
        <mxCell id="LLMWrkkM6dnET8qG6Xcl-25" value="Infrastructure Services" style="text;html=1;strokeColor=none;fillColor=none;align=center;verticalAlign=middle;whiteSpace=wrap;rounded=0;" vertex="1" parent="LLMWrkkM6dnET8qG6Xcl-23">
          <mxGeometry x="-10" y="180" width="150" height="20" as="geometry" />
        </mxCell>
      </root>
    </mxGraphModel>
  </diagram>
</mxfile>
